<?xml version="1.0" encoding="utf-8"?>
<!-- Generator: Adobe Illustrator 18.0.0, SVG Export Plug-In . SVG Version: 6.00 Build 0)  -->
<!DOCTYPE svg PUBLIC "-//W3C//DTD SVG 1.1//EN" "http://www.w3.org/Graphics/SVG/1.1/DTD/svg11.dtd">
<svg version="1.1" id="Layer_1" xmlns="http://www.w3.org/2000/svg" xmlns:xlink="http://www.w3.org/1999/xlink" x="0px" y="0px"
	 viewBox="0 0 92 36.8" enable-background="new 0 0 92 36.8" xml:space="preserve">
<g>
	<g>
		<defs>
			<rect id="SVGID_5_" x="0" y="0" width="92" height="36.8"/>
		</defs>
		<clipPath id="SVGID_1_">
			<use xlink:href="#SVGID_5_"  overflow="visible"/>
		</clipPath>
		<path clip-path="url(#SVGID_1_)" fill="#2569B3" d="M18.4,36.8c10.2,0,18.4-8.2,18.4-18.4S28.6,0,18.4,0C8.2,0,0,8.2,0,18.4
			S8.2,36.8,18.4,36.8"/>
		<path clip-path="url(#SVGID_1_)" fill="#2569B3" d="M73.6,36.8c10.2,0,18.4-8.2,18.4-18.4S83.8,0,73.6,0
			C63.4,0,55.2,8.2,55.2,18.4S63.4,36.8,73.6,36.8"/>
	</g>
	<rect x="18.4" y="0" fill="#2569B3" width="55.2" height="36.8"/>
	<g>
		<defs>
			<rect id="SVGID_7_" x="0" y="0" width="92" height="36.8"/>
		</defs>
		<clipPath id="SVGID_2_">
			<use xlink:href="#SVGID_7_"  overflow="visible"/>
		</clipPath>
		<path clip-path="url(#SVGID_2_)" fill="#FFFFFF" d="M28.7,10.1v4.3l-5.2,2.7c-0.4,0.2-1,0.4-1.5,0.4h-6.7l0-3.8H21
			c0.5,0,1.2-0.2,1.6-0.4L28.7,10.1z"/>
		<path clip-path="url(#SVGID_2_)" fill="#FFFFFF" d="M15.3,23.1v-3.8h7.1c0.5,0,1.2-0.2,1.6-0.4l9.3-4.9c0.4-0.2,1-0.4,1.5-0.4
			l8.1,0v3.8h-7.1c-0.5,0-1.2,0.2-1.6,0.4l-9.3,4.9c-0.4,0.2-1,0.4-1.5,0.4H15.3z"/>
		<path clip-path="url(#SVGID_2_)" fill="#FFFFFF" d="M29.5,26.7v-4.3l5.2-2.7c0.4-0.2,1-0.4,1.5-0.4h6.7v3.8h-5.7
			c-0.5,0-1.2,0.2-1.6,0.4L29.5,26.7z"/>
		<path clip-path="url(#SVGID_2_)" fill="#FFFFFF" d="M63.9,13.7L63.9,13.7c0,0-1.6,5-2,6.1c-0.3-1-1.9-6.1-1.9-6.1h-2.9l3.3,9.4
			h3.1l3.4-9.4H63.9z"/>
		<path clip-path="url(#SVGID_2_)" fill="#FFFFFF" d="M72.7,21.2h-1.3v-1.9h1.2c0.6,0,1.3,0.1,1.3,1C73.8,21.1,73.2,21.2,72.7,21.2
			 M71.4,15.6h1.3c0.3,0,0.5,0,0.8,0.2c0.2,0.2,0.3,0.4,0.3,0.7c0,0.3-0.2,0.6-0.4,0.8c-0.2,0.1-0.4,0.1-0.8,0.1h-1.1V15.6z
			 M74.4,18.2L74.4,18.2c0.5-0.1,2-0.5,2-2.2c0-0.8-0.4-1.3-0.7-1.6c-0.9-0.8-2.1-0.8-3.3-0.8h-3.8v9.4h4.2c0.8,0,1.8,0,2.5-0.4
			c1-0.5,1.3-1.4,1.3-2.1C76.7,18.7,75,18.4,74.4,18.2"/>
		<path clip-path="url(#SVGID_2_)" fill="#FFFFFF" d="M51.1,19.8h1.8v1.4c-0.5,0.1-0.9,0.1-1.2,0.1c-1.7,0-2.6-1-2.6-2.9
			c0-0.7,0.2-2.9,2.2-2.9c0.6,0,1.3,0.2,1.4,1l2.9,0c0-0.5,0-1.2-0.7-2c-0.8-0.8-2-1.1-3.4-1.1c-1.1,0-2.8,0.2-3.9,1.3
			c-1.1,1-1.4,2.6-1.4,3.7c0,1.5,0.5,3,1.8,3.9c1.1,0.8,2.5,1,3.5,1c1.4,0,2.8-0.2,4.2-0.5v-5h-4.5V19.8z"/>
	</g>
</g>
</svg>
